<svg width="1024" height="1024" viewBox="0 0 1024 1024" fill="none" xmlns="http://www.w3.org/2000/svg">
<rect width="1024" height="1024" fill="#6E7B62"/>
<path d="M426.657 788.743C426.657 796.065 432.794 802 440.116 802H584.088C591.41 802 597.346 796.065 597.346 788.743V235.257C597.346 227.935 591.41 222 584.088 222H440.116C432.794 222 426.657 227.935 426.657 235.257V788.743Z" fill="white"/>
<path d="M342.747 707.543H379.429V453.999C379.429 446.678 373.508 440.743 366.185 440.742C338.408 440.741 310.631 440.742 282.854 440.742L247.687 440.743C240.365 440.743 234.429 446.678 234.429 454V597.432C234.429 626.202 245.505 653.828 265.288 674.401C285.667 695.595 313.591 707.543 342.747 707.543Z" fill="white"/>
<path d="M644.572 609.771H681.249C710.407 609.771 738.334 597.823 758.715 576.628C778.496 556.056 789.572 528.432 789.572 499.666V356.229C789.572 348.907 783.636 342.971 776.313 342.971L741.347 342.971C713.503 342.971 685.659 342.971 657.815 342.971C650.493 342.971 644.572 348.907 644.572 356.228V609.771Z" fill="white"/>
</svg>
